<?xml version="1.0" encoding="UTF-8" standalone="no"?>
<svg
   height="64"
   viewBox="0 0 40.23 57.86"
   width="64"
   version="1.1"
   id="svg16"
   sodipodi:docname="carriage.svg"
   inkscape:version="1.3.2 (091e20e, 2023-11-25, custom)"
   xmlns:inkscape="http://www.inkscape.org/namespaces/inkscape"
   xmlns:sodipodi="http://sodipodi.sourceforge.net/DTD/sodipodi-0.dtd"
   xmlns="http://www.w3.org/2000/svg"
   xmlns:svg="http://www.w3.org/2000/svg">
  <defs
     id="defs16" />
  <sodipodi:namedview
     id="namedview16"
     pagecolor="#ffffff"
     bordercolor="#000000"
     borderopacity="0.25"
     inkscape:showpageshadow="2"
     inkscape:pageopacity="0.0"
     inkscape:pagecheckerboard="0"
     inkscape:deskcolor="#d1d1d1"
     inkscape:zoom="6.3515625"
     inkscape:cx="41.485855"
     inkscape:cy="13.776138"
     inkscape:window-width="2560"
     inkscape:window-height="1369"
     inkscape:window-x="1912"
     inkscape:window-y="-8"
     inkscape:window-maximized="1"
     inkscape:current-layer="svg16" />
  <g
     id="g7"
     transform="matrix(0.10921884,0,0,0.10921884,-7.7314547,-1.8509178)">
	<path
   class="st0"
   d="m 315.627,291.089 c -14.434,0 -27.562,5.87 -37.017,15.332 -9.462,9.454 -15.332,22.59 -15.332,37.017 0,14.441 5.87,27.57 15.332,37.025 9.455,9.462 22.583,15.339 37.017,15.331 14.434,0.008 27.571,-5.87 37.018,-15.331 9.469,-9.455 15.339,-22.584 15.339,-37.025 0,-14.426 -5.87,-27.563 -15.339,-37.017 -9.447,-9.461 -22.583,-15.332 -37.018,-15.332 z m 5.592,14.065 c 8.45,1.222 15.996,5.161 21.775,10.926 1.064,1.071 2.06,2.203 2.995,3.387 l -20.025,11.56 c -0.98,0.566 -2.18,0.566 -3.169,0 -0.973,-0.566 -1.577,-1.607 -1.577,-2.739 v -23.134 z m -32.951,10.925 c 5.772,-5.764 13.318,-9.704 21.776,-10.926 v 23.133 c 0,1.132 -0.604,2.174 -1.585,2.739 -0.98,0.566 -2.188,0.566 -3.169,0 l -20.018,-11.56 c 0.936,-1.183 1.932,-2.315 2.996,-3.386 z m -11.332,27.359 c 0,-5.055 0.981,-9.884 2.739,-14.298 l 20.033,11.567 c 0.98,0.558 1.585,1.6 1.585,2.731 0,1.139 -0.604,2.188 -1.592,2.746 l -20.025,11.567 c -1.759,-4.428 -2.74,-9.243 -2.74,-14.313 z m 33.108,38.292 c -8.458,-1.222 -16.004,-5.153 -21.776,-10.925 -1.064,-1.064 -2.06,-2.196 -2.996,-3.388 l 20.018,-11.56 c 0.981,-0.558 2.189,-0.558 3.169,0 0.981,0.574 1.585,1.615 1.585,2.747 z m 5.583,-32.489 c -3.199,0 -5.787,-2.596 -5.787,-5.794 0,-3.2 2.588,-5.795 5.787,-5.795 3.2,0 5.795,2.595 5.795,5.795 0,3.198 -2.595,5.794 -5.795,5.794 z m 27.367,21.564 c -5.779,5.772 -13.325,9.703 -21.775,10.925 v -23.126 c 0,-1.132 0.604,-2.173 1.577,-2.747 0.988,-0.558 2.196,-0.558 3.169,0 l 20.025,11.56 c -0.936,1.192 -1.932,2.324 -2.996,3.388 z m 8.594,-13.054 -20.032,-11.567 c -0.981,-0.558 -1.585,-1.607 -1.585,-2.746 0,-1.132 0.604,-2.173 1.585,-2.731 l 20.032,-11.567 c 1.758,4.414 2.732,9.243 2.739,14.298 -0.007,5.07 -0.981,9.885 -2.739,14.313 z"
   id="path1-2"
   style="fill:#000000" />

	<path
   class="st0"
   d="m 496.668,306.421 c -9.455,-9.462 -22.583,-15.332 -37.024,-15.332 -14.427,0 -27.563,5.87 -37.01,15.332 -9.468,9.454 -15.339,22.59 -15.339,37.017 0,14.441 5.871,27.57 15.339,37.025 9.447,9.462 22.583,15.339 37.01,15.331 14.441,0.008 27.57,-5.87 37.024,-15.331 9.462,-9.455 15.332,-22.584 15.332,-37.025 0,-14.426 -5.87,-27.563 -15.332,-37.017 z m -31.434,-1.267 c 8.458,1.222 16.004,5.161 21.776,10.926 1.064,1.071 2.06,2.203 2.996,3.387 l -20.018,11.56 c -0.981,0.566 -2.188,0.566 -3.169,0 -0.981,-0.566 -1.585,-1.607 -1.585,-2.739 z m -32.95,10.925 c 5.78,-5.764 13.325,-9.704 21.775,-10.926 v 23.133 c 0,1.132 -0.604,2.174 -1.577,2.739 -0.988,0.566 -2.188,0.566 -3.169,0 l -20.025,-11.56 c 0.937,-1.183 1.933,-2.315 2.996,-3.386 z m -11.325,27.359 c 0,-5.055 0.973,-9.884 2.731,-14.298 l 20.032,11.567 c 0.981,0.558 1.584,1.6 1.584,2.731 0,1.139 -0.603,2.188 -1.584,2.746 l -20.032,11.567 c -1.758,-4.428 -2.731,-9.243 -2.731,-14.313 z m 33.101,38.292 c -8.45,-1.222 -15.996,-5.153 -21.775,-10.925 -1.064,-1.064 -2.06,-2.196 -2.995,-3.388 l 20.025,-11.56 c 0.98,-0.558 2.18,-0.558 3.169,0 0.973,0.574 1.577,1.615 1.577,2.747 v 23.126 z m 5.584,-32.489 c -3.192,0 -5.787,-2.596 -5.787,-5.794 0,-3.2 2.595,-5.795 5.787,-5.795 3.206,0 5.794,2.595 5.794,5.795 0,3.198 -2.588,5.794 -5.794,5.794 z m 27.366,21.564 c -5.772,5.772 -13.318,9.703 -21.776,10.925 v -23.126 c 0,-1.132 0.604,-2.173 1.585,-2.747 0.981,-0.558 2.188,-0.558 3.169,0 l 20.018,11.56 c -0.936,1.192 -1.932,2.324 -2.996,3.388 z m 8.594,-13.054 -20.025,-11.567 c -0.988,-0.558 -1.592,-1.607 -1.592,-2.746 0,-1.132 0.604,-2.173 1.592,-2.731 l 20.025,-11.567 c 1.758,4.414 2.731,9.243 2.739,14.298 -0.008,5.07 -0.981,9.885 -2.739,14.313 z"
   id="path2"
   style="fill:#000000" />

	<path
   class="st0"
   d="m 213.82,299.993 12.087,0.25 10.427,29.433 h 19.052 c 0,-62.059 -32.746,-72.404 -45.679,-72.404 h -81.556 c -0.823,-2.482 -1.683,-4.889 -2.551,-7.274 3.72,0.182 7.448,0.317 11.197,0.317 45.544,-0.015 92.611,-12.94 128.405,-25.804 17.58,-6.323 32.406,-12.638 42.978,-17.437 v 73.06 H 498.765 V 121.79 c -13.031,0 -20.161,6.873 -31.336,6.873 -11.175,0 -15.218,-12.457 -31.977,-12.457 -16.758,0 -20.809,12.457 -31.976,12.457 -11.174,0 -15.219,-12.457 -31.977,-12.457 -16.765,0 -20.81,12.457 -31.984,12.457 -11.175,0 -18.297,-6.873 -31.335,-6.873 v 76.66 c -11.107,5.13 -28.234,12.57 -48.969,19.874 -34.836,12.299 -79.723,24.167 -122.414,24.16 -4.814,0 -9.574,-0.196 -14.313,-0.513 -15.633,-37.998 -38.639,-60.95 -69.959,-55.593 -12.359,2.097 -23.926,8.24 -30.792,18.124 l -18.336,1.343 c -1.373,0.106 -2.573,0.958 -3.101,2.218 -0.543,1.268 -0.332,2.716 0.551,3.78 l 13.959,16.788 c 0.181,0.226 0.4,0.423 0.634,0.589 0.158,2.022 0.453,4.12 0.89,6.27 0.898,4.414 9.047,40.08 9.047,40.08 h 27.797 c 0,0 1.283,-27.789 1.524,-29.932 0.43,-3.878 3.146,-6.564 5.599,0 l 12.343,50.87 -34.82,23.042 10.676,47.127 18.222,-2.52 -1.26,-29.525 14.456,-8.134 15.725,64.798 h 22.756 l -5.817,-52.892 h 45.709 l 16.584,20.727 -18.848,20.734 13.189,13.19 32.045,-32.037 -10.277,-22.613 h 8.391 l 33.266,52.892 h 23.277 l -8.428,-19.067 z"
   id="path3"
   style="fill:#000000" />

	<path
   class="st0"
   d="m 498.622,286.291 h -26.189 c 9.047,2.007 17.467,6.127 24.65,12.133 z"
   id="path4"
   style="fill:#000000" />

	<path
   class="st0"
   d="m 447.85,323.013 v -9.854 c -3.064,1.185 -5.931,2.845 -8.526,4.942 z"
   id="path5"
   style="fill:#000000" />

	<path
   class="st0"
   d="M 446.862,286.291 H 328.417 c 10.767,2.384 20.644,7.764 28.627,15.755 8.065,8.058 13.483,18.07 15.822,28.981 h 29.548 c 2.339,-10.91 7.756,-20.923 15.83,-28.996 7.966,-7.976 17.85,-13.356 28.618,-15.74 z"
   id="path6-6"
   style="fill:#000000" />

	<path
   class="st0"
   d="m 471.444,313.159 v 9.862 l 8.526,-4.919 c -2.596,-2.098 -5.463,-3.758 -8.526,-4.943 z"
   id="path7"
   style="fill:#000000" />

</g>
</svg>
