<?xml version="1.0" encoding="UTF-8" standalone="no"?>
<svg
   height="64"
   viewBox="0 0 40.23 57.86"
   width="64"
   version="1.1"
   id="svg16"
   sodipodi:docname="event chest.svg"
   xml:space="preserve"
   inkscape:version="1.3.2 (091e20e, 2023-11-25, custom)"
   xmlns:inkscape="http://www.inkscape.org/namespaces/inkscape"
   xmlns:sodipodi="http://sodipodi.sourceforge.net/DTD/sodipodi-0.dtd"
   xmlns="http://www.w3.org/2000/svg"
   xmlns:svg="http://www.w3.org/2000/svg"><defs
     id="defs16" /><sodipodi:namedview
     id="namedview16"
     pagecolor="#ffffff"
     bordercolor="#000000"
     borderopacity="0.25"
     inkscape:showpageshadow="2"
     inkscape:pageopacity="0.0"
     inkscape:pagecheckerboard="0"
     inkscape:deskcolor="#d1d1d1"
     inkscape:zoom="6.3515625"
     inkscape:cx="36.841328"
     inkscape:cy="85.726937"
     inkscape:window-width="2560"
     inkscape:window-height="1369"
     inkscape:window-x="1912"
     inkscape:window-y="-8"
     inkscape:window-maximized="1"
     inkscape:current-layer="svg16" /><g
     style="fill:none"
     id="g17"
     transform="matrix(2.7639839,0,0,2.7639839,-12.800488,-4.6592584)"><path
       d="m 21,12.4984 h -7 m -11,0 h 7 M 7,4.5 V 19.4984 M 17,4.5 V 19.4984 M 6.2,19.5 h 11.6 c 1.1201,0 1.6802,0 2.108,-0.218 0.3763,-0.1917 0.6823,-0.4977 0.874,-0.874 C 21,17.9802 21,17.4201 21,16.3 V 10.9 C 21,8.65979 21,7.53968 20.564,6.68404 20.1805,5.93139 19.5686,5.31947 18.816,4.93597 17.9603,4.5 16.8402,4.5 14.6,4.5 H 9.4 C 7.15979,4.5 6.03968,4.5 5.18404,4.93597 4.43139,5.31947 3.81947,5.93139 3.43597,6.68404 3,7.53968 3,8.65979 3,10.9 v 5.4 c 0,1.1201 0,1.6802 0.21799,2.108 0.19174,0.3763 0.4977,0.6823 0.87403,0.874 C 4.51984,19.5 5.07989,19.5 6.2,19.5 Z M 10,10.4984 h 4 v 4 h -4 z"
       stroke="#000000"
       stroke-width="2"
       stroke-linejoin="round"
       id="path1-1" /></g></svg>
