<?xml version="1.0" encoding="UTF-8" standalone="no"?>
<svg
   height="64"
   viewBox="0 0 40.23 57.86"
   width="64"
   version="1.1"
   id="svg16"
   sodipodi:docname="helmet.svg"
   inkscape:version="1.3.2 (091e20e, 2023-11-25, custom)"
   xmlns:inkscape="http://www.inkscape.org/namespaces/inkscape"
   xmlns:sodipodi="http://sodipodi.sourceforge.net/DTD/sodipodi-0.dtd"
   xmlns="http://www.w3.org/2000/svg"
   xmlns:svg="http://www.w3.org/2000/svg">
  <defs
     id="defs16" />
  <sodipodi:namedview
     id="namedview16"
     pagecolor="#ffffff"
     bordercolor="#000000"
     borderopacity="0.25"
     inkscape:showpageshadow="2"
     inkscape:pageopacity="0.0"
     inkscape:pagecheckerboard="0"
     inkscape:deskcolor="#d1d1d1"
     inkscape:zoom="6.3515625"
     inkscape:cx="41.564576"
     inkscape:cy="13.697417"
     inkscape:window-width="1350"
     inkscape:window-height="1212"
     inkscape:window-x="2538"
     inkscape:window-y="124"
     inkscape:window-maximized="0"
     inkscape:current-layer="svg16" />
  <path
     fill="#000000"
     d="m 19.539997,4.1355578 c -1.650179,0 -3.146216,0.1725129 -4.165042,0.4272193 -0.315917,0.079004 -0.562599,0.1657416 -0.768762,0.2496787 0.206163,0.083937 0.452845,0.1706747 0.768762,0.2496761 1.018826,0.254707 2.514863,0.4272231 4.165042,0.4272231 1.650177,0 3.146216,-0.1725152 4.165044,-0.4272231 C 24.020956,4.983131 24.267638,4.8963932 24.473803,4.8124558 24.267638,4.7285195 24.020956,4.6417816 23.705041,4.5627771 22.686213,4.3080701 21.190174,4.1355578 19.539997,4.1355578 Z m -6.981996,1.1255867 c -0.443368,0.1907861 -0.796803,0.3916305 -1.032947,0.5775839 -0.348596,0.274818 -0.397914,0.4464595 -0.397914,0.5209199 0,0.074461 0.04932,0.2461018 0.397914,0.5209198 0.348701,0.2748217 0.948916,0.5826148 1.725895,0.8415774 1.553961,0.5179227 3.803871,0.8615932 6.289048,0.8615932 2.485175,0 4.735087,-0.3436705 6.289046,-0.8615932 0.77698,-0.2589626 1.377194,-0.5666603 1.725895,-0.8415774 0.348603,-0.274818 0.397915,-0.4464592 0.397915,-0.5209198 0,-0.07446 -0.04931,-0.2461019 -0.397915,-0.5209199 -0.235949,-0.1859534 -0.589578,-0.3867978 -1.032947,-0.577683 -0.152781,0.4245103 -0.508254,0.7088079 -0.836644,0.902885 -0.432634,0.2557669 -0.947655,0.4341805 -1.558022,0.5867712 -1.221217,0.3053783 -2.81966,0.4792442 -4.587328,0.4792442 -1.767668,0 -3.366111,-0.1738655 -4.58723,-0.4791499 C 14.3423,6.5982051 13.827374,6.4197967 13.394646,6.1640244 13.066156,5.9698533 12.710591,5.6855557 12.557907,5.2610454 Z m 15.877382,3.1322859 c -0.559402,0.3957918 -1.249934,0.7111288 -2.055827,0.9798596 -1.806156,0.6019541 -4.19773,0.95104 -6.839559,0.95104 -2.641829,0 -5.0335,-0.3490859 -6.839558,-0.9509446 C 11.894933,9.1048528 11.204791,8.789709 10.645574,8.3943022 8.2659936,9.9618028 6.2351105,12.138122 4.7265987,14.74166 c 0.3167862,0.509219 0.5792276,1.111752 0.8080209,1.797645 0.4433659,1.330198 0.7488404,2.978541 0.8793839,4.810027 l 1.9349551,-1.935247 h 1.8442544 c 1.547776,-3.633776 5.155344,-6.188771 9.346784,-6.188771 4.19144,0 7.799009,2.554995 9.346783,6.188771 h 3.2903 v 7.929361 h -3.2903 c -1.547774,3.633776 -5.155343,6.188772 -9.346783,6.188772 -4.19144,0 -7.799008,-2.554996 -9.346784,-6.188772 H 8.3491536 L 6.4140035,25.408295 c -0.1305433,1.83149 -0.4361174,3.479831 -0.8793839,4.809834 -0.3010258,0.902981 -0.6600734,1.662266 -1.1255836,2.2531 -0.3220101,0.408556 -0.7288246,0.759283 -1.2071002,0.937019 0.6082409,1.648532 1.4055268,3.183931 2.3608203,4.572148 h 3.8237915 v -3.094384 h 4.8349764 v 3.094384 H 24.85847 v -3.094384 h 4.834975 v 3.094384 h 3.823792 c 0.95539,-1.388217 1.752487,-2.923616 2.360821,-4.572246 -0.478274,-0.177629 -0.884996,-0.528365 -1.207003,-0.937016 -0.465607,-0.590837 -0.824654,-1.349926 -1.125581,-2.252905 -0.602148,-1.806058 -0.95104,-4.197632 -0.95104,-6.839466 0,-2.641827 0.349086,-5.033497 0.95094,-6.839554 0.228404,-0.685118 0.490558,-1.287071 0.807055,-1.796 C 32.843533,12.140058 30.81516,9.9608366 28.435383,8.3935295 Z M 2.5208816,14.965905 c -0.074461,0 -0.2461019,0.04932 -0.5209198,0.397921 -0.1859532,0.235945 -0.3867978,0.589579 -0.5776833,1.032943 0.4245105,0.152787 0.7088055,0.508253 0.9028812,0.836645 0.255771,0.432634 0.4341807,0.947655 0.5867753,1.55812 0.3053744,1.221121 0.4792403,2.819564 0.4792403,4.587229 0,1.767672 -0.1738654,3.366113 -0.479145,4.587237 -0.152591,0.610464 -0.3310043,1.125387 -0.5867728,1.55812 -0.1941729,0.328486 -0.4784685,0.684049 -0.902979,0.83674 0.1907861,0.443368 0.3916305,0.796805 0.5775841,1.032943 0.2749171,0.348507 0.4465584,0.397825 0.521019,0.397825 0.074456,0 0.2460981,-0.04931 0.5209198,-0.39792 0.2748179,-0.348698 0.5826148,-0.948915 0.8415775,-1.725896 0.5179189,-1.55396 0.8615892,-3.80387 0.8615892,-6.289049 0,-2.485176 -0.3436703,-4.735083 -0.8615892,-6.289045 C 3.6244162,16.312736 3.3167185,15.712522 3.0418014,15.363826 2.7669797,15.015223 2.5953382,14.965905 2.5208816,14.965905 Z m 17.0191154,0 c -3.885388,0 -7.143386,2.615339 -8.116185,6.186549 H 9.3737836 v 0.0022 h -0.303639 l -2.2240904,2.224083 2.2240904,2.22409 h 0.316403 v -0.0021 H 11.42275 c 0.971154,3.573436 4.230311,6.190896 8.117247,6.190896 3.886936,0 7.146095,-2.61746 8.117247,-6.190707 h 2.036201 v 0.0019 h 0.74304 v -0.0019 h 0.0024 V 21.15243 H 27.656 c -0.972605,-3.571116 -4.230606,-6.186549 -8.115994,-6.186549 z m 17.019115,0 c -0.07446,0 -0.246098,0.04932 -0.520919,0.397921 -0.274816,0.348696 -0.582616,0.94891 -0.841573,1.725892 -0.517924,1.553962 -0.861593,3.803869 -0.861593,6.289045 0,2.485179 0.343669,4.735089 0.861593,6.289049 0.258957,0.776981 0.566656,1.377198 0.841573,1.725896 0.274821,0.348602 0.446463,0.39792 0.520919,0.39792 0.07447,0 0.2461,-0.04931 0.520926,-0.39792 0.18594,-0.235947 0.386795,-0.58958 0.577679,-1.032948 -0.424513,-0.152785 -0.708809,-0.508247 -0.902883,-0.83664 -0.255773,-0.432635 -0.434179,-0.947656 -0.586775,-1.558026 -0.305373,-1.221218 -0.479241,-2.819659 -0.479241,-4.587331 0,-1.767665 0.173863,-3.366108 0.479145,-4.587229 0.152585,-0.610465 0.331005,-1.125387 0.586775,-1.55812 0.194162,-0.328486 0.478466,-0.684051 0.902979,-0.83674 -0.190788,-0.443368 -0.39163,-0.796803 -0.577586,-1.032947 -0.274919,-0.348504 -0.446558,-0.397822 -0.521019,-0.397822 z m -17.019115,1.353794 c 3.88829,0 7.059065,3.170781 7.059065,7.059064 0,3.888291 -3.170775,7.059067 -7.059065,7.059067 -3.88829,0 -7.059065,-3.170776 -7.059065,-7.059067 0,-3.888283 3.170775,-7.059064 7.059065,-7.059064 z m 0,1.74059 c -0.255576,0 -0.506317,0.01896 -0.752031,0.05348 l 0.752031,0.752031 0.752033,-0.752031 c -0.245616,-0.03452 -0.496455,-0.05348 -0.752033,-0.05348 z M 0.97369028,18.445157 c -0.083937,0.205968 -0.1706747,0.452554 -0.2496799,0.768569 -0.2547072,1.018823 -0.427219,2.514863 -0.427219,4.165037 0,1.650181 0.1725129,3.146218 0.427219,4.165043 0.079004,0.31592 0.1657438,0.562599 0.2496799,0.768766 0.083933,-0.206171 0.17067472,-0.452846 0.24967612,-0.768766 0.2547057,-1.018825 0.4272177,-2.514862 0.4272177,-4.165043 0,-1.650174 -0.1725129,-3.146214 -0.4272177,-4.165037 -0.079002,-0.31592 -0.1657438,-0.5626 -0.24967612,-0.768764 z m 37.13261272,0 c -0.08393,0.205968 -0.170677,0.452554 -0.249676,0.768569 -0.254705,1.018823 -0.427216,2.514863 -0.427216,4.165037 0,1.650181 0.172504,3.146218 0.427216,4.165043 0.07901,0.31592 0.165752,0.562599 0.249676,0.768766 0.08394,-0.206171 0.170677,-0.452846 0.249681,-0.768766 0.254705,-1.018825 0.42722,-2.514862 0.42722,-4.165043 0,-1.650174 -0.172504,-3.146214 -0.42722,-4.165037 -0.07901,-0.31592 -0.165753,-0.5626 -0.249681,-0.768764 z m -21.161722,0.286906 c -0.860336,0.479632 -1.571559,1.190951 -2.051287,2.051288 l 1.364624,1.364428 2.050996,-2.050995 -1.364428,-1.364721 z m 5.190832,0 -1.364433,1.364625 2.050997,2.050998 1.364721,-1.364433 C 23.707069,19.92292 22.995747,19.211695 22.135413,18.731966 Z m -2.595416,2.595418 -2.051287,2.051282 2.051287,2.051292 2.051285,-2.051292 z m -5.265,1.299252 c -0.03452,0.245619 -0.05347,0.496454 -0.05347,0.75203 0,0.255579 0.01894,0.506323 0.05347,0.752033 l 0.752031,-0.752033 z m 10.530001,0 -0.752033,0.75203 0.752033,0.752033 c 0.03452,-0.245615 0.05347,-0.496454 0.05347,-0.752033 0,-0.255576 -0.01894,-0.506317 -0.05347,-0.75203 z m -8.546981,1.983019 -1.364723,1.36443 c 0.479629,0.860335 1.190951,1.571561 2.051287,2.051288 l 1.364433,-1.364627 -2.050997,-2.050995 z m 6.56396,0 -2.050997,2.050995 1.364433,1.364723 c 0.860334,-0.479632 1.571563,-1.190953 2.051285,-2.051288 l -1.364622,-1.36443 z m -3.28198,3.281979 -0.752031,0.752033 c 0.245614,0.03451 0.496455,0.05348 0.752031,0.05348 0.255578,0 0.506317,-0.01894 0.752033,-0.05348 z M 11.12714,36.6266 v 1.353796 h 1.353792 V 36.6266 Z m 15.471922,0 v 1.353796 h 1.353791 V 36.6266 Z M 6.4855613,39.720984 V 42.62197 H 32.594434 v -2.900986 z m -9.0510759,4.641579 c 0.2391391,0.48698 0.6687733,0.96748 1.3842555,1.458038 1.13621668,0.779203 2.8724578,1.487915 4.9899831,2.05264 4.2352466,1.129447 9.98732,1.711096 15.731273,1.711096 5.743951,0 11.496028,-0.581743 15.731271,-1.711096 2.117528,-0.564725 3.853669,-1.273535 4.989987,-2.05264 0.715576,-0.490558 1.145113,-0.971058 1.384253,-1.458038 z"
     id="path1-9"
     style="stroke-width:0.0966994" />
</svg>
