<?xml version="1.0" encoding="UTF-8" standalone="no"?>
<svg
   height="45.5"
   viewBox="0 0 345.75 489.31"
   width="32.2"
   version="1.1"
   id="svg11"
   sodipodi:docname="backpack.svg"
   inkscape:version="1.3.2 (091e20e, 2023-11-25, custom)"
   xml:space="preserve"
   xmlns:inkscape="http://www.inkscape.org/namespaces/inkscape"
   xmlns:sodipodi="http://sodipodi.sourceforge.net/DTD/sodipodi-0.dtd"
   xmlns="http://www.w3.org/2000/svg"
   xmlns:svg="http://www.w3.org/2000/svg"><defs
     id="defs11"><style
       id="style1">.cls-1{fill:#aa4d43;}.cls-2{fill:#727481;}.cls-3{fill:#5e606d;}.cls-4{fill:#4d4d4d;}.cls-5{fill:#e97557;}.cls-6{fill:#333;}.cls-7{fill:#ffffff;}.cls-8{fill:none;stroke:#333;stroke-miterlimit:10;stroke-width:0.5px;stroke-dasharray:5;}</style></defs><sodipodi:namedview
     id="namedview11"
     pagecolor="#505050"
     bordercolor="#eeeeee"
     borderopacity="1"
     inkscape:showpageshadow="0"
     inkscape:pageopacity="0"
     inkscape:pagecheckerboard="0"
     inkscape:deskcolor="#505050"
     inkscape:zoom="8.9340656"
     inkscape:cx="23.617467"
     inkscape:cy="41.078722"
     inkscape:window-width="1350"
     inkscape:window-height="1212"
     inkscape:window-x="2454"
     inkscape:window-y="108"
     inkscape:window-maximized="0"
     inkscape:current-layer="svg11" /><path
     d="m 338.25,172.94 c 0,19.96 -3.55,39.09 -10.04,56.8 -20.63,56.33 -127.49,215.19 -150.83,249.59 -2.2,3.24 -6.95,3.33 -9.26,0.16 C 141.06,442.36 7.5,254.96 7.5,172.88 7.5,80.42 83.37,5.68 176.25,7.53 c 89.71,1.79 162.04,75.67 162,165.41 z"
     fill="#3e92d0"
     stroke="#000000"
     stroke-miterlimit="10"
     stroke-width="15"
     id="path1"
     inkscape:highlight-color="#aaaaaa" /><g
     stroke="#000"
     stroke-miterlimit="10"
     id="g11" /><path
     style="fill:#15871d;fill-opacity:1;stroke-width:0.0791473"
     d="M 14.872008,42.204487 C 7.4470977,31.654835 2.6528584,22.822396 1.6631622,17.869797 1.4908474,17.007506 1.4411011,16.104108 1.5094677,15.078689 1.7380545,11.650155 3.1221354,8.511812 5.5007342,6.0286643 6.8300914,4.6408765 8.1451603,3.6741295 9.774686,2.8867527 c 4.92,-2.37731395 10.798544,-1.7774824 15.156699,1.5465509 2.829319,2.1579659 4.770113,5.2367442 5.509006,8.7392134 0.252916,1.198861 0.34176,3.334114 0.192302,4.621734 -0.116711,1.0055 -0.523531,2.655213 -0.871961,3.535934 -1.002923,2.535068 -3.868962,7.512021 -8.295179,14.404801 -1.65593,2.578716 -5.331549,8.112684 -5.3878,8.111806 -0.02774,-4.32e-4 -0.570324,-0.739469 -1.205745,-1.642305 z"
     id="path6"
     transform="matrix(10.754066,0,0,10.754066,-0.26546564,0)" /><g
     id="g1"
     transform="matrix(0.57855689,0,0,0.57855689,27.422312,7.3278516)"><path
       class="cls-1"
       d="m 254.9,26 c -21.58,0 -39.07,21.93 -39.07,49 0,27.07 17.49,49 39.07,49 21.58,0 39.1,-21.95 39.1,-49 0,-27.05 -17.53,-49 -39.1,-49 z m 0,88.54 c -17.32,0 -31.36,-17.61 -31.36,-39.33 0,-21.72 14,-39.33 31.36,-39.33 17.36,0 31.36,17.61 31.36,39.33 0,21.72 -14.04,39.33 -31.36,39.33 z"
       id="path1-0" /><path
       class="cls-2"
       d="m 428.83,268.65 q -1.29,8.27 -3.35,16.27 a 173.44,173.44 0 0 1 -5.73,18.08 175.6,175.6 0 0 1 -328.6,0 q -2.61,-6.89 -4.63,-14.05 a 172.87,172.87 0 0 1 -4.45,-20.33 33.26,33.26 0 0 0 31,21.45 h 284.76 a 33.18,33.18 0 0 0 27.65,-14.93 32.46,32.46 0 0 0 3.35,-6.49 z"
       id="path2" /><path
       class="cls-3"
       d="m 431,241.14 v 238 a 6,6 0 0 1 -0.07,1 4.14,4.14 0 0 1 -1.43,2.51 l -1.74,1.51 -0.74,0.64 a 4,4 0 0 1 -2.62,1 H 90.85 A 11,11 0 0 1 79.92,474.87 V 241.14 a 175.11,175.11 0 0 1 76.57,-145 l 0.4,-0.28 0.4,-0.27 h 196.32 l 0.4,0.27 0.4,0.28 a 175.11,175.11 0 0 1 76.57,145 z"
       id="path3" /><path
       class="cls-2"
       d="m 425.48,197.36 v 275.78 a 11,11 0 0 1 -10.94,10.93 H 97.46 A 11,11 0 0 1 86.52,473.14 V 193.28 a 175.82,175.82 0 0 1 70,-97.13 l 0.4,-0.28 0.4,-0.27 h 196.29 l 0.4,0.27 0.4,0.28 a 175.74,175.74 0 0 1 71.07,101.21 z"
       id="path4" /><path
       class="cls-3"
       d="m 431,241.14 v 51 a 10.93,10.93 0 0 1 -5.5,9.47 10.78,10.78 0 0 1 -5.43,1.46 H 90.85 a 10.83,10.83 0 0 1 -4.33,-0.9 11,11 0 0 1 -6.6,-10 v -51 a 175.11,175.11 0 0 1 76.57,-145 h 197.92 a 175.11,175.11 0 0 1 76.57,145 z"
       id="path5" /><path
       class="cls-2"
       d="m 431,241.14 a 175.68,175.68 0 0 1 -2.15,27.51 32.46,32.46 0 0 1 -3.35,6.53 33.18,33.18 0 0 1 -27.65,14.93 H 113.07 a 33.26,33.26 0 0 1 -31,-21.45 175.37,175.37 0 0 1 74.42,-172.51 l 0.4,-0.28 0.4,-0.27 a 175.64,175.64 0 0 1 196.32,0 l 0.4,0.27 0.4,0.28 a 175.11,175.11 0 0 1 76.57,145 z"
       id="path6-2" /><path
       class="cls-2"
       d="M 79.92,241.14 A 175.81,175.81 0 0 0 82.07,268.66 32.75,32.75 0 0 1 79.92,257 Z"
       id="path7" /><path
       class="cls-2"
       d="M 431,241.14 V 257 a 32.7,32.7 0 0 1 -2.15,11.69 175.68,175.68 0 0 0 2.15,-27.55 z"
       id="path8" /><path
       class="cls-3"
       d="M 448.59,350.36 V 458 a 3.45,3.45 0 0 1 -0.68,2.12 l -19.56,24.43 v 0 0 c -1.16,1.39 -3,0.56 -3.31,-1.54 0,0 0,0 0,0 V 483 a 9.56,9.56 0 0 1 -0.06,-1.09 V 350.36 c 0,-3.25 1.65,-6 3.82,-6.51 a 3.16,3.16 0 0 1 0.76,-0.09 H 444 c 2.52,0 4.59,2.97 4.59,6.6 z"
       id="path9" /><path
       class="cls-1"
       d="M 448.59,452.26 V 458 a 3.45,3.45 0 0 1 -0.68,2.12 l -19.56,24.43 v 0 0 c -1.16,1.39 -3,0.56 -3.31,-1.54 0,0 0,0 0,0 V 483 a 9.56,9.56 0 0 1 -0.06,-1.09 v -27 c 0,-3.26 1.71,-6 3.94,-6.51 a 3.48,3.48 0 0 1 0.79,-0.09 h 15 a 4.19,4.19 0 0 1 3.39,2 3.41,3.41 0 0 1 0.49,1.95 z"
       id="path10" /><path
       class="cls-1"
       d="m 448.59,350.36 h -23.66 c 0,-3.63 2.06,-6.6 4.58,-6.6 H 444 c 2.53,0 4.59,2.97 4.59,6.6 z"
       id="path11" /><path
       class="cls-4"
       d="m 215.28,227.66 a 6.62,6.62 0 0 0 -6.6,-6.61 h -19.26 a 6.62,6.62 0 0 0 -6.6,6.61 v 63.58 c 10.82,-0.06 21.64,0 32.46,-0.07 z"
       id="path12" /><path
       class="cls-4"
       d="m 215.28,381.27 c 0,0.39 0,0.77 -0.05,1.14 -0.05,0.37 0.05,0.82 0.05,1.24 a 16.23,16.23 0 1 1 -32.46,0 c 0,-0.42 0,-0.83 0.05,-1.24 a 10.63,10.63 0 0 1 -0.05,-1.14 v -99.9 c 10.82,-0.08 21.64,0 32.46,-0.11 z"
       id="path13" /><path
       class="cls-4"
       d="m 338.54,227.66 a 6.62,6.62 0 0 0 -6.61,-6.61 h -19.25 a 6.62,6.62 0 0 0 -6.61,6.61 v 63.58 c 10.82,-0.06 21.65,0 32.47,-0.07 z"
       id="path14" /><path
       class="cls-4"
       d="m 338.54,381.27 c 0,0.39 0,0.77 -0.05,1.14 -0.05,0.37 0.05,0.82 0.05,1.24 a 16.24,16.24 0 1 1 -32.47,0 c 0,-0.42 0,-0.83 0.05,-1.24 0.05,-0.41 -0.05,-0.75 -0.05,-1.14 v -99.9 c 10.83,-0.08 21.64,0 32.47,-0.11 z"
       id="path15" /><path
       class="cls-5"
       d="m 333,227.66 a 6.63,6.63 0 0 0 -6.61,-6.61 h -19.22 a 6.62,6.62 0 0 0 -6.6,6.61 v 63.58 c 10.82,-0.06 21.64,0 32.47,-0.07 z"
       id="path16" /><rect
       class="cls-6"
       height="2.75"
       width="338.95999"
       x="85.970001"
       y="374.01999"
       id="rect16" /><rect
       class="cls-7"
       height="2.75"
       width="338.95999"
       x="85.970001"
       y="376.76999"
       id="rect17" /><rect
       class="cls-7"
       height="2.75"
       width="338.95999"
       x="85.970001"
       y="381.45001"
       id="rect18" /><rect
       class="cls-6"
       height="2.75"
       width="338.95999"
       x="85.970001"
       y="383.92999"
       id="rect19" /><path
       class="cls-3"
       d="M 63.41,350.36 V 458 a 3.45,3.45 0 0 0 0.68,2.12 l 19.56,24.43 v 0 0 c 1.16,1.39 3,0.56 3.31,-1.54 0,0 0,0 0,0 V 483 a 9.56,9.56 0 0 0 0.06,-1.09 V 350.36 c 0,-3.25 -1.65,-6 -3.82,-6.51 a 3.16,3.16 0 0 0 -0.76,-0.09 H 68 c -2.52,0 -4.59,2.97 -4.59,6.6 z"
       id="path19" /><path
       class="cls-1"
       d="M 63.41,452.26 V 458 a 3.45,3.45 0 0 0 0.68,2.12 l 19.56,24.43 v 0 0 c 1.16,1.39 3,0.56 3.31,-1.54 0,0 0,0 0,0 V 483 a 9.56,9.56 0 0 0 0.06,-1.09 v -27 c 0,-3.26 -1.71,-6 -3.94,-6.51 a 3.48,3.48 0 0 0 -0.79,-0.09 h -15 a 4.19,4.19 0 0 0 -3.39,2 3.41,3.41 0 0 0 -0.49,1.95 z"
       id="path20" /><path
       class="cls-1"
       d="m 63.41,350.36 h 23.66 c 0,-3.63 -2.06,-6.6 -4.58,-6.6 H 68 c -2.53,0 -4.59,2.97 -4.59,6.6 z"
       id="path21" /><path
       class="cls-1"
       d="m 429.79,482.73 a 4.12,4.12 0 0 0 0.09,-0.86 v -2.18 a 4.71,4.71 0 0 0 -4.69,-4.7 H 84.61 a 4.73,4.73 0 0 0 -4.69,4.7 0.53,0.53 0 0 0 0.13,0.36 l 4.63,5.74 a 0.58,0.58 0 0 0 0.44,0.21 h 340.63 a 4,4 0 0 0 1.7,-0.37 z"
       id="path22" /><path
       class="cls-5"
       d="m 209.78,381.27 c 0,0.39 0,0.77 -0.05,1.14 -0.05,0.37 0.05,0.82 0.05,1.24 a 16.24,16.24 0 1 1 -32.47,0 c 0,-0.42 0,-0.83 0.05,-1.24 0.05,-0.41 -0.05,-0.75 -0.05,-1.14 v -99.9 c 10.83,-0.08 21.65,0 32.47,-0.11 z"
       id="path23" /><path
       class="cls-5"
       d="m 209.78,227.66 a 6.62,6.62 0 0 0 -6.6,-6.61 h -19.26 a 6.63,6.63 0 0 0 -6.61,6.61 v 63.58 c 10.83,-0.06 21.65,0 32.47,-0.07 z"
       id="path24" /><rect
       class="cls-6"
       height="6.0500002"
       width="5.5"
       x="190.8"
       y="277.45001"
       id="rect24" /><circle
       class="cls-6"
       cx="193.55"
       cy="261.5"
       r="5.7800002"
       id="circle24" /><circle
       class="cls-6"
       cx="193.55"
       cy="235.64"
       r="5.7800002"
       id="circle25" /><path
       class="cls-8"
       d="m 178.69,316.52 v 68.23 c 0.7,7.25 6.15,12.93 12.66,13.76 7.69,1 15.5,-5 16.5,-13.76 v -69.33 c -0.61,-50.12 0,-91.14 0,-86.94 0,0.55 0,-2.75 -1.65,-4.4 -1.5,-1.5 -2.6,-1.59 -4.4,-1.65 h -18.16 a 6,6 0 0 0 -3.3,1.65 6.29,6.29 0 0 0 -1.65,4.95 z"
       id="path25" /><path
       class="cls-6"
       d="m 175.13,275.25 v 41.82 H 212 v -41.82 z m 33,37.47 H 179 v -33.11 h 29.17 z"
       id="path26" /><path
       class="cls-5"
       d="m 333,381.27 c 0,0.39 0,0.77 -0.05,1.14 -0.05,0.37 0.05,0.82 0.05,1.24 a 16.24,16.24 0 1 1 -32.47,0 c 0,-0.42 0,-0.83 0.05,-1.24 0.05,-0.41 -0.05,-0.75 -0.05,-1.14 v -99.9 c 10.82,-0.08 21.64,0 32.47,-0.11 z"
       id="path27" /><rect
       class="cls-6"
       height="6.0500002"
       width="5.5"
       x="314.04999"
       y="277.45001"
       id="rect27" /><circle
       class="cls-6"
       cx="316.79999"
       cy="261.5"
       r="5.7800002"
       id="circle27" /><circle
       class="cls-6"
       cx="316.79999"
       cy="235.64"
       r="5.7800002"
       id="circle28" /><path
       class="cls-8"
       d="m 302,316.52 v 68.23 c 0.7,7.25 6.15,12.93 12.65,13.76 7.7,1 15.51,-5 16.51,-13.76 v -69.33 c -0.61,-50.12 0,-91.14 0,-86.94 0,0.55 0,-2.75 -1.65,-4.4 -1.65,-1.65 -2.6,-1.59 -4.4,-1.65 H 306.9 a 5.94,5.94 0 0 0 -3.3,1.65 6.21,6.21 0 0 0 -1.6,4.92 z"
       id="path28" /><path
       class="cls-6"
       d="m 297.84,275.25 v 41.82 h 36.82 v -41.82 z m 33,37.47 h -29.17 v -33.11 h 29.16 z"
       id="path29" /></g></svg>
