<?xml version="1.0" encoding="UTF-8" standalone="no"?>
<svg
   height="45.5"
   viewBox="0 0 345.75 489.31"
   width="32.2"
   version="1.1"
   id="svg11"
   sodipodi:docname="bob.svg"
   inkscape:version="1.3.2 (091e20e, 2023-11-25, custom)"
   xml:space="preserve"
   xmlns:inkscape="http://www.inkscape.org/namespaces/inkscape"
   xmlns:sodipodi="http://sodipodi.sourceforge.net/DTD/sodipodi-0.dtd"
   xmlns="http://www.w3.org/2000/svg"
   xmlns:svg="http://www.w3.org/2000/svg"><defs
     id="defs11" /><sodipodi:namedview
     id="namedview11"
     pagecolor="#505050"
     bordercolor="#eeeeee"
     borderopacity="1"
     inkscape:showpageshadow="0"
     inkscape:pageopacity="0"
     inkscape:pagecheckerboard="0"
     inkscape:deskcolor="#505050"
     inkscape:zoom="4.4670328"
     inkscape:cx="-4.7011072"
     inkscape:cy="100.84994"
     inkscape:window-width="2560"
     inkscape:window-height="1369"
     inkscape:window-x="1912"
     inkscape:window-y="-8"
     inkscape:window-maximized="1"
     inkscape:current-layer="svg11"
     showgrid="false" /><path
     d="m 338.25,172.94 c 0,19.96 -3.55,39.09 -10.04,56.8 -20.63,56.33 -127.49,215.19 -150.83,249.59 -2.2,3.24 -6.95,3.33 -9.26,0.16 C 141.06,442.36 7.5,254.96 7.5,172.88 7.5,80.42 83.37,5.68 176.25,7.53 c 89.71,1.79 162.04,75.67 162,165.41 z"
     fill="#3e92d0"
     stroke="#000000"
     stroke-miterlimit="10"
     stroke-width="15"
     id="path1"
     inkscape:highlight-color="#aaaaaa" /><g
     stroke="#000"
     stroke-miterlimit="10"
     id="g11" /><path
     style="fill:#15871d;fill-opacity:1;stroke-width:0.0791473"
     d="M 14.872008,42.204487 C 7.4470977,31.654835 2.6528584,22.822396 1.6631622,17.869797 1.4908474,17.007506 1.4411011,16.104108 1.5094677,15.078689 1.7380545,11.650155 3.1221354,8.511812 5.5007342,6.0286643 6.8300914,4.6408765 8.1451603,3.6741295 9.774686,2.8867527 c 4.92,-2.37731395 10.798544,-1.7774824 15.156699,1.5465509 2.829319,2.1579659 4.770113,5.2367442 5.509006,8.7392134 0.252916,1.198861 0.34176,3.334114 0.192302,4.621734 -0.116711,1.0055 -0.523531,2.655213 -0.871961,3.535934 -1.002923,2.535068 -3.868962,7.512021 -8.295179,14.404801 -1.65593,2.578716 -5.331549,8.112684 -5.3878,8.111806 -0.02774,-4.32e-4 -0.570324,-0.739469 -1.205745,-1.642305 z"
     id="path6"
     transform="matrix(10.754066,0,0,10.754066,-0.26546564,0)" /><style
     type="text/css"
     id="style1">
	.st0{fill:none;stroke:#000000;stroke-width:2;stroke-linecap:round;stroke-linejoin:round;stroke-miterlimit:10;}
	.st1{fill:none;stroke:#000000;stroke-width:2;stroke-linecap:round;stroke-linejoin:round;}
	.st2{fill:none;stroke:#000000;stroke-width:2;stroke-linecap:round;stroke-linejoin:round;stroke-dasharray:6,6;}
	.st3{fill:none;stroke:#000000;stroke-width:2;stroke-linecap:round;stroke-linejoin:round;stroke-dasharray:4,4;}
	.st4{fill:none;stroke:#000000;stroke-width:2;stroke-linecap:round;}
	.st5{fill:none;stroke:#000000;stroke-width:2;stroke-linecap:round;stroke-dasharray:3.1081,3.1081;}
	
		.st6{fill:none;stroke:#000000;stroke-width:2;stroke-linecap:round;stroke-linejoin:round;stroke-miterlimit:10;stroke-dasharray:4,3;}
</style><g
     id="g1"
     transform="matrix(10.754066,0,0,10.754066,-1.5490705,3.7982806)"><polygon
       class="st0"
       points="6,21 8,5 24,5 26,21 "
       id="polygon1" /><line
       class="st0"
       x1="16"
       y1="3"
       x2="16"
       y2="5"
       id="line1" /><line
       class="st0"
       x1="16"
       y1="28"
       x2="16"
       y2="21"
       id="line2" /><line
       class="st0"
       x1="7"
       y1="29"
       x2="11"
       y2="21"
       id="line3" /><line
       class="st0"
       x1="25"
       y1="29"
       x2="21"
       y2="21"
       id="line4" /></g></svg>
