<?xml version="1.0" encoding="UTF-8" standalone="no"?>
<svg
   height="45.5"
   viewBox="0 0 345.75 489.31"
   width="32.2"
   version="1.1"
   id="svg9"
   sodipodi:docname="event chest.svg"
   xml:space="preserve"
   inkscape:version="1.3.2 (091e20e, 2023-11-25, custom)"
   xmlns:inkscape="http://www.inkscape.org/namespaces/inkscape"
   xmlns:sodipodi="http://sodipodi.sourceforge.net/DTD/sodipodi-0.dtd"
   xmlns="http://www.w3.org/2000/svg"
   xmlns:svg="http://www.w3.org/2000/svg"><defs
     id="defs9" /><sodipodi:namedview
     id="namedview9"
     pagecolor="#ffffff"
     bordercolor="#000000"
     borderopacity="0.25"
     inkscape:showpageshadow="2"
     inkscape:pageopacity="0.0"
     inkscape:pagecheckerboard="0"
     inkscape:deskcolor="#d1d1d1"
     inkscape:zoom="8.9340659"
     inkscape:cx="9.0664207"
     inkscape:cy="30.053506"
     inkscape:window-width="1920"
     inkscape:window-height="1009"
     inkscape:window-x="-8"
     inkscape:window-y="-8"
     inkscape:window-maximized="1"
     inkscape:current-layer="svg9" /><g
     stroke-miterlimit="10"
     id="g9"><path
       d="m338.25 172.94c0 19.96-3.55 39.09-10.04 56.8-20.63 56.33-127.49 215.19-150.83 249.59-2.2 3.24-6.95 3.33-9.26.16-27.06-37.13-160.62-224.53-160.62-306.61 0-92.46 75.87-167.2 168.75-165.35 89.71 1.79 162.04 75.67 162 165.41z"
       fill="#5db670"
       stroke="#000"
       stroke-width="15"
       id="path1" /></g><g
     style="fill:none"
     id="g10"
     transform="matrix(11.626804,0,0,11.626804,31.478879,25.153793)"><path
       d="m 21,12.4984 h -7 m -11,0 h 7 M 7,4.5 V 19.4984 M 17,4.5 V 19.4984 M 6.2,19.5 h 11.6 c 1.1201,0 1.6802,0 2.108,-0.218 0.3763,-0.1917 0.6823,-0.4977 0.874,-0.874 C 21,17.9802 21,17.4201 21,16.3 V 10.9 C 21,8.65979 21,7.53968 20.564,6.68404 20.1805,5.93139 19.5686,5.31947 18.816,4.93597 17.9603,4.5 16.8402,4.5 14.6,4.5 H 9.4 C 7.15979,4.5 6.03968,4.5 5.18404,4.93597 4.43139,5.31947 3.81947,5.93139 3.43597,6.68404 3,7.53968 3,8.65979 3,10.9 v 5.4 c 0,1.1201 0,1.6802 0.21799,2.108 0.19174,0.3763 0.4977,0.6823 0.87403,0.874 C 4.51984,19.5 5.07989,19.5 6.2,19.5 Z M 10,10.4984 h 4 v 4 h -4 z"
       stroke="#000000"
       stroke-width="2"
       stroke-linejoin="round"
       id="path1-0" /></g></svg>
