<?xml version="1.0" encoding="UTF-8" standalone="no"?>
<!-- Created with Inkscape (http://www.inkscape.org/) -->

<svg
   version="1.1"
   id="svg1"
   width="100"
   height="100"
   viewBox="0 0 100 100"
   sodipodi:docname="extraction.png"
   xmlns:inkscape="http://www.inkscape.org/namespaces/inkscape"
   xmlns:sodipodi="http://sodipodi.sourceforge.net/DTD/sodipodi-0.dtd"
   xmlns="http://www.w3.org/2000/svg"
   xmlns:svg="http://www.w3.org/2000/svg">
  <defs
     id="defs1" />
  <sodipodi:namedview
     id="namedview1"
     pagecolor="#505050"
     bordercolor="#eeeeee"
     borderopacity="1"
     inkscape:showpageshadow="0"
     inkscape:pageopacity="0"
     inkscape:pagecheckerboard="0"
     inkscape:deskcolor="#505050"
     showgrid="false" />
  <g
     inkscape:groupmode="layer"
     inkscape:label="Image"
     id="g1">
    <path
       style="fill:#333333;fill-opacity:1"
       d="m 28.667921,72.350063 c -1.69365,-1.20298 -1.59185,0.26238 -1.59185,-22.91535 0,-23.01106 -0.0856,-21.68258 1.47325,-22.85222 0.65027,-0.48791 1.123,-0.50738 13.9462,-0.57455 l 13.27311,-0.0695 0.86749,0.57958 c 1.58055,1.05597 1.75045,1.74339 1.75089,7.0842 4e-4,4.87909 -0.13339,5.6576 -1.11186,6.46966 -0.51721,0.42924 -1.99501,0.45166 -2.76069,0.0419 -1.00853,-0.53975 -1.17727,-1.30465 -1.17727,-5.33653 v -3.77578 h -10.60546 -10.60545 v 18.43328 18.43329 h 10.60545 10.60546 v -3.77578 c 0,-2.22977 0.11481,-4.02777 0.2804,-4.3912 0.6322,-1.38754 2.84453,-1.70055 3.98249,-0.56346 l 0.66107,0.66055 0.0726,5.10811 c 0.0817,5.74382 -0.0555,6.34808 -1.68818,7.43881 l -0.858,0.57318 h -13.1599 -13.1599 z m 36.62165,-11.45923 c -1.04931,-0.50948 -1.59645,-1.63816 -1.34169,-2.76775 0.12299,-0.5453 0.98844,-1.77721 2.36692,-3.36913 1.19517,-1.38023 2.17303,-2.57355 2.17303,-2.65182 0,-0.0783 -5.39562,-0.14231 -11.99028,-0.14231 h -11.99027 l -0.81891,-0.73169 c -1.12127,-1.00186 -1.1547,-2.43178 -0.083,-3.5504 l 0.7359,-0.76813 h 12.07328 c 6.6403,0 12.07327,-0.064 12.07327,-0.1423 0,-0.0783 -0.97185,-1.26465 -2.15967,-2.63639 -2.43146,-2.80795 -2.82874,-3.68713 -2.23323,-4.94209 0.73464,-1.54812 2.60723,-1.91822 3.94488,-0.77965 0.82951,0.70605 8.14553,9.30017 8.53234,10.02291 0.6308,1.17867 0.11963,2.05474 -4.06985,6.97513 -2.22873,2.61757 -4.2994,4.94199 -4.6015,5.16538 -0.86006,0.636 -1.73673,0.74284 -2.61123,0.31824 z"
       id="path1" />
  </g>
</svg>
