<?xml version="1.0" encoding="UTF-8" standalone="no"?>
<svg
   height="45.5"
   viewBox="0 0 345.75 489.31"
   width="32.2"
   version="1.1"
   id="svg9"
   sodipodi:docname="extract.svg"
   inkscape:version="1.3.2 (091e20e, 2023-11-25, custom)"
   xmlns:inkscape="http://www.inkscape.org/namespaces/inkscape"
   xmlns:sodipodi="http://sodipodi.sourceforge.net/DTD/sodipodi-0.dtd"
   xmlns="http://www.w3.org/2000/svg"
   xmlns:svg="http://www.w3.org/2000/svg">
  <defs
     id="defs9" />
  <sodipodi:namedview
     id="namedview9"
     pagecolor="#505050"
     bordercolor="#eeeeee"
     borderopacity="1"
     inkscape:showpageshadow="0"
     inkscape:pageopacity="0"
     inkscape:pagecheckerboard="0"
     inkscape:deskcolor="#505050"
     inkscape:zoom="17.868132"
     inkscape:cx="16.090098"
     inkscape:cy="22.722017"
     inkscape:window-width="1350"
     inkscape:window-height="1212"
     inkscape:window-x="2550"
     inkscape:window-y="141"
     inkscape:window-maximized="0"
     inkscape:current-layer="g8" />
  <g
     stroke-miterlimit="10"
     id="g9">
    <path
       d="m338.25 172.94c0 19.96-3.55 39.09-10.04 56.8-20.63 56.33-127.49 215.19-150.83 249.59-2.2 3.24-6.95 3.33-9.26.16-27.06-37.13-160.62-224.53-160.62-306.61 0-92.46 75.87-167.2 168.75-165.35 89.71 1.79 162.04 75.67 162 165.41z"
       fill="#3e92d0"
       stroke="#000"
       stroke-width="15"
       id="path1" />
    <g
       stroke="#1d1d1b"
       stroke-width="10"
       id="g8">
      <path
         style="fill:#000000;fill-opacity:1;stroke-width:4.33856"
         d="m 95.674529,276.28855 c -7.34798,-5.21919 -6.90632,1.13834 -6.90632,-99.41939 0,-99.834617 -0.37138,-94.070947 6.39177,-99.145487 2.82123,-2.11682 4.872191,-2.20129 60.506271,-2.49271 l 57.58604,-0.30153 3.76365,2.51454 c 6.85729,4.58137 7.59442,7.56378 7.59632,30.735147 0.002,21.16817 -0.57872,24.54578 -4.82386,28.06894 -2.24394,1.86228 -8.65545,1.95955 -11.97739,0.18178 -4.37555,-2.34173 -5.10764,-5.66029 -5.10764,-23.1528 V 96.895643 H 156.69106 110.6788 v 79.973687 79.97375 h 46.01226 46.01231 v -16.3814 c 0,-9.67397 0.49811,-17.47469 1.21653,-19.05144 2.74283,-6.01991 12.34113,-7.37793 17.27823,-2.4446 l 2.86808,2.86582 0.31498,22.1618 c 0.35446,24.91984 -0.24079,27.54145 -7.32425,32.27364 l -3.72248,2.48677 H 156.23959 99.144719 Z M 254.55936,226.57211 c -4.55248,-2.2104 -6.92627,-7.10723 -5.82099,-12.00802 0.5336,-2.36581 4.2884,-7.71051 10.269,-14.61714 5.1853,-5.98819 9.4278,-11.16548 9.4278,-11.50506 0,-0.33971 -23.40916,-0.61741 -52.02042,-0.61741 H 164.39437 L 160.84149,184.65 c -4.86469,-4.34662 -5.00973,-10.5504 -0.3601,-15.40359 l 3.19273,-3.33257 h 52.38053 c 28.80927,0 52.38048,-0.27766 52.38048,-0.61737 0,-0.33971 -4.21642,-5.48675 -9.36984,-11.43811 -10.54901,-12.18243 -12.27263,-15.9968 -9.68898,-21.4415 3.18728,-6.7166 11.3116,-8.32229 17.11506,-3.38255 3.59887,3.06323 35.33979,40.34925 37.01798,43.48489 2.73675,5.11372 0.51902,8.91459 -17.65725,30.26196 -9.66945,11.35645 -18.65316,21.44106 -19.96383,22.41025 -3.73141,2.75932 -7.53489,3.22285 -11.32895,1.3807 z"
         id="path1-4" />
    </g>
  </g>
</svg>
