<?xml version="1.0" encoding="UTF-8" standalone="no"?>
<svg
   height="45.5"
   viewBox="0 0 345.75 489.31"
   width="32.2"
   version="1.1"
   id="svg9"
   sodipodi:docname="extractpaid.svg"
   inkscape:version="1.3.2 (091e20e, 2023-11-25, custom)"
   xml:space="preserve"
   xmlns:inkscape="http://www.inkscape.org/namespaces/inkscape"
   xmlns:sodipodi="http://sodipodi.sourceforge.net/DTD/sodipodi-0.dtd"
   xmlns="http://www.w3.org/2000/svg"
   xmlns:svg="http://www.w3.org/2000/svg"><defs
     id="defs9" /><sodipodi:namedview
     id="namedview9"
     pagecolor="#505050"
     bordercolor="#eeeeee"
     borderopacity="1"
     inkscape:showpageshadow="0"
     inkscape:pageopacity="0"
     inkscape:pagecheckerboard="0"
     inkscape:deskcolor="#505050"
     inkscape:zoom="8.934066"
     inkscape:cx="12.816113"
     inkscape:cy="53.223247"
     inkscape:window-width="2560"
     inkscape:window-height="1369"
     inkscape:window-x="1912"
     inkscape:window-y="-8"
     inkscape:window-maximized="1"
     inkscape:current-layer="g9" /><g
     stroke-miterlimit="10"
     id="g9"><path
       d="m338.25 172.94c0 19.96-3.55 39.09-10.04 56.8-20.63 56.33-127.49 215.19-150.83 249.59-2.2 3.24-6.95 3.33-9.26.16-27.06-37.13-160.62-224.53-160.62-306.61 0-92.46 75.87-167.2 168.75-165.35 89.71 1.79 162.04 75.67 162 165.41z"
       fill="#3e92d0"
       stroke="#000"
       stroke-width="15"
       id="path1" /><g
       stroke="#1d1d1b"
       stroke-width="10"
       id="g8"
       transform="matrix(0.82079476,0,0,0.82079476,66.635497,31.048609)"><path
         style="fill:#000000;fill-opacity:1;stroke-width:4.33856"
         d="m 98.607576,273.3555 c -7.34798,-5.21919 -6.90632,1.13834 -6.90632,-99.41939 0,-99.834614 -0.37138,-94.070944 6.39177,-99.145484 2.821234,-2.11682 4.872194,-2.20129 60.506274,-2.49271 l 57.58604,-0.30153 3.76365,2.51454 c 6.85729,4.58137 7.59442,7.56378 7.59632,30.735144 0.002,21.16817 -0.57872,24.54578 -4.82386,28.06894 -2.24394,1.86228 -8.65545,1.95955 -11.97739,0.18178 -4.37555,-2.34173 -5.10764,-5.66029 -5.10764,-23.1528 V 93.962596 h -46.01231 -46.01226 v 79.973684 79.97375 h 46.01226 46.01231 v -16.3814 c 0,-9.67397 0.49811,-17.47469 1.21653,-19.05144 2.74283,-6.01991 12.34113,-7.37793 17.27823,-2.4446 l 2.86808,2.86582 0.31498,22.1618 c 0.35446,24.91984 -0.24079,27.54145 -7.32425,32.27364 l -3.72248,2.48677 H 159.17264 102.07777 Z M 257.49241,223.63906 c -4.55248,-2.2104 -6.92627,-7.10723 -5.82099,-12.00802 0.5336,-2.36581 4.2884,-7.71051 10.269,-14.61714 5.1853,-5.98819 9.4278,-11.16548 9.4278,-11.50506 0,-0.33971 -23.40916,-0.61741 -52.02042,-0.61741 h -52.02038 l -3.55288,-3.17448 c -4.86469,-4.34662 -5.00973,-10.5504 -0.3601,-15.40359 l 3.19273,-3.33257 h 52.38053 c 28.80927,0 52.38048,-0.27766 52.38048,-0.61737 0,-0.33971 -4.21642,-5.48675 -9.36984,-11.43811 -10.54901,-12.18243 -12.27263,-15.9968 -9.68898,-21.4415 3.18728,-6.7166 11.3116,-8.32229 17.11506,-3.38255 3.59887,3.06323 35.33979,40.34925 37.01798,43.48489 2.73675,5.11372 0.51902,8.91459 -17.65725,30.26196 -9.66945,11.35645 -18.65316,21.44106 -19.96383,22.41025 -3.73141,2.75932 -7.53489,3.22285 -11.32895,1.3807 z"
         id="path1-4" /></g><g
       style="fill:#000000"
       id="g1"
       transform="matrix(11.575304,0,0,11.575304,28.100717,58.210025)"><path
         d="M 8.699,11.907 A 3.005,3.005 0 0 1 7.196,14.485 4.903,4.903 0 0 1 5.545,15.148 V 16.3 a 1.03,1.03 0 1 1 -2.059,0 V 15.159 L 3.423,15.148 a 5.199,5.199 0 0 1 -1.064,-0.325 3.414,3.414 0 0 1 -1.311,-0.962 1.029022,1.029022 0 1 1 1.556,-1.347 1.39,1.39 0 0 0 0.52,0.397 l 0.002,0.001 a 3.367,3.367 0 0 0 0.648,0.208 h 0.002 a 4.964,4.964 0 0 0 0.695,0.084 3.132,3.132 0 0 0 1.605,-0.445 C 6.576,12.434 6.64,12.134 6.64,11.908 A 1.005,1.005 0 0 0 6.395,11.258 2.06,2.06 0 0 0 5.845,10.818 2.705,2.705 0 0 0 5.181,10.578 3.107,3.107 0 0 0 4.531,10.512 6.046,6.046 0 0 1 3.523,10.432 4.578,4.578 0 0 1 2.236,10.017 3.708,3.708 0 0 1 1.02,9.04 3.115,3.115 0 0 1 0.302,7.086 2.965,2.965 0 0 1 0.623,5.753 3.407,3.407 0 0 1 1.876,4.418 4.872,4.872 0 0 1 3.487,3.787 V 2.674 a 1.03,1.03 0 1 1 2.059,0 V 3.818 L 5.609,3.832 H 5.611 A 5.464,5.464 0 0 1 6.686,4.2 3.963,3.963 0 0 1 7.843,4.995 1.03,1.03 0 0 1 6.39,6.453 1.901,1.901 0 0 0 5.841,6.077 3.516,3.516 0 0 0 5.172,5.843 L 5.106,5.829 A 3.183,3.183 0 0 0 4.548,5.736 3.062,3.062 0 0 0 2.976,6.158 1.102,1.102 0 0 0 2.361,7.086 1.086,1.086 0 0 0 2.617,7.74 l 0.002,0.003 a 1.679,1.679 0 0 0 0.537,0.43 L 3.158,8.175 A 2.57,2.57 0 0 0 3.861,8.4 H 3.863 A 4.012,4.012 0 0 0 4.531,8.453 5.165,5.165 0 0 1 5.618,8.565 L 5.621,8.566 A 4.804,4.804 0 0 1 6.803,8.994 L 6.807,8.996 A 4.115,4.115 0 0 1 7.945,9.902 L 7.947,9.904 A 3.05,3.05 0 0 1 8.7,11.907 Z"
         id="path1-8" /></g></g></svg>
