<?xml version="1.0" encoding="UTF-8" standalone="no"?>
<svg
   height="45.5"
   viewBox="0 0 345.75 489.31"
   width="32.2"
   version="1.1"
   id="svg11"
   sodipodi:docname="helmet.svg"
   inkscape:version="1.3.2 (091e20e, 2023-11-25, custom)"
   xml:space="preserve"
   xmlns:inkscape="http://www.inkscape.org/namespaces/inkscape"
   xmlns:sodipodi="http://sodipodi.sourceforge.net/DTD/sodipodi-0.dtd"
   xmlns="http://www.w3.org/2000/svg"
   xmlns:svg="http://www.w3.org/2000/svg"><defs
     id="defs11" /><sodipodi:namedview
     id="namedview11"
     pagecolor="#505050"
     bordercolor="#eeeeee"
     borderopacity="1"
     inkscape:showpageshadow="0"
     inkscape:pageopacity="0"
     inkscape:pagecheckerboard="0"
     inkscape:deskcolor="#505050"
     inkscape:zoom="2.2335164"
     inkscape:cx="41.638378"
     inkscape:cy="161.62854"
     inkscape:window-width="1350"
     inkscape:window-height="1212"
     inkscape:window-x="2980"
     inkscape:window-y="141"
     inkscape:window-maximized="0"
     inkscape:current-layer="svg11" /><path
     d="m 338.25,172.94 c 0,19.96 -3.55,39.09 -10.04,56.8 -20.63,56.33 -127.49,215.19 -150.83,249.59 -2.2,3.24 -6.95,3.33 -9.26,0.16 C 141.06,442.36 7.5,254.96 7.5,172.88 7.5,80.42 83.37,5.68 176.25,7.53 c 89.71,1.79 162.04,75.67 162,165.41 z"
     fill="#3e92d0"
     stroke="#000000"
     stroke-miterlimit="10"
     stroke-width="15"
     id="path1"
     inkscape:highlight-color="#aaaaaa" /><g
     stroke="#000"
     stroke-miterlimit="10"
     id="g11" /><path
     style="fill:#15871d;fill-opacity:1;stroke-width:0.0791473"
     d="M 14.872008,42.204487 C 7.4470977,31.654835 2.6528584,22.822396 1.6631622,17.869797 1.4908474,17.007506 1.4411011,16.104108 1.5094677,15.078689 1.7380545,11.650155 3.1221354,8.511812 5.5007342,6.0286643 6.8300914,4.6408765 8.1451603,3.6741295 9.774686,2.8867527 c 4.92,-2.37731395 10.798544,-1.7774824 15.156699,1.5465509 2.829319,2.1579659 4.770113,5.2367442 5.509006,8.7392134 0.252916,1.198861 0.34176,3.334114 0.192302,4.621734 -0.116711,1.0055 -0.523531,2.655213 -0.871961,3.535934 -1.002923,2.535068 -3.868962,7.512021 -8.295179,14.404801 -1.65593,2.578716 -5.331549,8.112684 -5.3878,8.111806 -0.02774,-4.32e-4 -0.570324,-0.739469 -1.205745,-1.642305 z"
     id="path6"
     transform="matrix(10.754066,0,0,10.754066,-0.26546564,0)" /><path
     fill="#000000"
     d="m 174.08371,41.891913 c -8.80966,0 -16.79642,0.920975 -22.23553,2.280756 -1.68656,0.421774 -3.0035,0.884834 -4.10412,1.332937 1.10062,0.44811 2.41756,0.911169 4.10412,1.332924 5.43911,1.359781 13.42587,2.280776 22.23553,2.280776 8.80965,0 16.79642,-0.920995 22.23554,-2.280776 1.68655,-0.421755 3.00349,-0.884814 4.10412,-1.332924 -1.10063,-0.448103 -2.41757,-0.911163 -4.10412,-1.332937 -5.43912,-1.359781 -13.42589,-2.280756 -22.23554,-2.280756 z m -37.27415,6.009067 c -2.36697,1.018533 -4.25382,2.090762 -5.5145,3.083495 -1.86102,1.467146 -2.12431,2.383472 -2.12431,2.780987 0,0.397516 0.26329,1.313842 2.12431,2.780988 1.86158,1.467165 5.06589,3.110353 9.21388,4.492853 8.29599,2.764987 20.30738,4.599709 33.57477,4.599709 13.26738,0 25.27878,-1.834722 33.57476,-4.599709 4.14799,-1.3825 7.3523,-3.025179 9.21388,-4.492853 1.86105,-1.467146 2.12431,-2.383472 2.12431,-2.780988 0,-0.397515 -0.26326,-1.313841 -2.12431,-2.780987 -1.25964,-0.992733 -3.14753,-2.064962 -5.5145,-3.084024 -0.81564,2.266295 -2.71337,3.784048 -4.46652,4.82015 -2.30966,1.36544 -5.05916,2.31792 -8.31767,3.132543 -6.5196,1.630295 -15.05306,2.558496 -24.48995,2.558496 -9.43689,0 -17.97035,-0.928201 -24.48943,-2.557994 -3.25904,-0.814622 -6.00803,-1.767075 -8.3182,-3.132543 -1.75368,-1.036604 -3.6519,-2.554357 -4.46702,-4.820652 z m 84.76314,16.72205 c -2.98643,2.112978 -6.67291,3.796439 -10.97526,5.231088 -9.64236,3.213598 -22.41004,5.077228 -36.51373,5.077228 -14.10369,0 -26.87189,-1.86363 -36.51373,-5.076719 -4.30028,-1.43359 -7.98468,-3.11602 -10.97012,-5.226942 -12.70365,8.368272 -23.54574,19.986793 -31.599094,33.886064 1.691197,2.718521 3.092269,5.935211 4.313707,9.596921 2.366957,7.10141 3.997767,15.90127 4.694687,25.67886 L 114.33913,123.458 h 9.84575 c 8.26297,-19.39931 27.52237,-33.039431 49.89883,-33.039431 22.37646,0 41.63586,13.640121 49.89882,33.039431 h 17.56563 v 42.33176 h -17.56563 c -8.26296,19.39931 -27.52236,33.03943 -49.89882,33.03943 -22.37646,0 -41.63586,-13.64012 -49.89883,-33.03943 h -9.84471 l -10.33101,-10.33102 c -0.69692,9.77762 -2.32826,18.57746 -4.694687,25.67783 -1.607058,4.82066 -3.523874,8.87419 -6.009051,12.02842 -1.719086,2.18112 -3.89091,4.05352 -6.444236,5.00238 3.247161,8.80087 7.503559,16.99776 12.603497,24.4089 h 20.413727 v -16.5197 h 25.81205 v 16.5197 h 56.7865 v -16.5197 H 228.289 v 16.5197 h 20.41373 c 5.10045,-7.41114 9.35584,-15.60803 12.6035,-24.40943 -2.55332,-0.94833 -4.72464,-2.82073 -6.44371,-5.00236 -2.4857,-3.15425 -4.40251,-7.20672 -6.00904,-12.02738 -3.21464,-9.64184 -5.07723,-22.40951 -5.07723,-36.51323 0,-14.10369 1.86363,-26.87188 5.0767,-36.51371 1.21936,-3.65758 2.61889,-6.87117 4.30854,-9.588145 C 245.10609,84.624813 234.2774,72.9908 221.5727,64.62356 Z M 83.225304,99.710903 c -0.397516,0 -1.313842,0.263293 -2.780987,2.124347 -0.992734,1.25962 -2.064963,3.14753 -3.084025,5.51448 2.266295,0.81567 3.784035,2.71336 4.82013,4.46652 1.365461,2.30966 2.317921,5.05916 3.132563,8.31819 1.630275,6.51909 2.558477,15.05256 2.558477,24.48943 0,9.4369 -0.928202,17.97035 -2.557968,24.48946 -0.814621,3.25903 -1.767102,6.008 -3.13255,8.3182 -1.036617,1.75366 -2.554357,3.65187 -4.820652,4.46702 1.018533,2.36697 2.090762,4.25383 3.083496,5.51448 1.467674,1.86054 2.384,2.12383 2.781516,2.12383 0.397495,0 1.313822,-0.26329 2.780987,-2.12434 1.467146,-1.86156 3.110353,-5.06588 4.492854,-9.21388 2.764966,-8.29599 4.599688,-20.30737 4.599688,-33.57477 0,-13.26739 -1.834722,-25.27876 -4.599688,-33.57476 -1.382501,-4.148 -3.025179,-7.35231 -4.492854,-9.21386 -1.467165,-1.861054 -2.383492,-2.124347 -2.780987,-2.124347 z m 90.858406,0 c -20.74257,0 -38.13575,13.962277 -43.32914,33.027567 h -10.9443 v 0.0118 h -1.62101 l -11.87355,11.87352 11.87355,11.87354 h 1.68915 v -0.0114 h 10.87049 c 5.18461,19.07718 22.58398,33.05078 43.33481,33.05078 20.75083,0 38.15021,-13.9736 43.33481,-33.04976 H 228.289 v 0.0101 h 3.9668 v -0.0101 h 0.0129 V 132.73834 H 217.41191 C 212.21955,113.67355 194.82636,99.710776 174.08379,99.710776 Z m 90.8584,0 c -0.39749,0 -1.31382,0.263293 -2.78098,2.124347 -1.46714,1.86155 -3.11036,5.06586 -4.49283,9.21386 -2.76499,8.296 -4.59971,20.30737 -4.59971,33.57476 0,13.2674 1.83472,25.27878 4.59971,33.57477 1.38247,4.148 3.02516,7.35232 4.49283,9.21388 1.46716,1.86105 2.38349,2.12434 2.78098,2.12434 0.39752,0 1.31384,-0.26329 2.78102,-2.12434 0.99271,-1.25962 2.06495,-3.14753 3.084,-5.5145 -2.2663,-0.81565 -3.78404,-2.71334 -4.82014,-4.46649 -1.36546,-2.30967 -2.31791,-5.05917 -3.13255,-8.3177 -1.63028,-6.51961 -2.55848,-15.05306 -2.55848,-24.48996 0,-9.43687 0.9282,-17.97034 2.55797,-24.48943 0.81462,-3.25903 1.76709,-6.008 3.13255,-8.31819 1.03661,-1.75366 2.55435,-3.65188 4.82065,-4.46703 -1.01854,-2.36697 -2.09076,-4.25382 -3.0835,-5.5145 -1.46768,-1.860524 -2.384,-2.123817 -2.78152,-2.123817 z m -90.8584,7.227377 c 20.75806,0 37.68559,16.92756 37.68559,37.68559 0,20.75806 -16.92753,37.6856 -37.68559,37.6856 -20.75806,0 -37.68559,-16.92754 -37.68559,-37.6856 0,-20.75803 16.92753,-37.68559 37.68559,-37.68559 z m 0,9.29233 c -1.36442,0 -2.70303,0.1012 -4.0148,0.28551 l 4.0148,4.0148 4.01481,-4.0148 c -1.31125,-0.18431 -2.65038,-0.28551 -4.01481,-0.28551 z m -99.118256,2.05466 c -0.448103,1.09959 -0.911169,2.41601 -1.332943,4.10309 -1.359782,5.4391 -2.280756,13.42587 -2.280756,22.23551 0,8.80967 0.920974,16.79642 2.280756,22.23554 0.421774,1.68657 0.88484,3.00349 1.332943,4.10413 0.448084,-1.10064 0.911169,-2.41756 1.332923,-4.10413 1.359775,-5.43912 2.280749,-13.42587 2.280749,-22.23554 0,-8.80964 -0.920974,-16.79641 -2.280749,-22.23551 -0.421754,-1.68657 -0.884839,-3.0035 -1.332923,-4.10413 z m 198.236506,0 c -0.44808,1.09959 -0.91113,2.41601 -1.33292,4.10309 -1.35977,5.4391 -2.28074,13.42587 -2.28074,22.23551 0,8.80967 0.92097,16.79642 2.28074,22.23554 0.42179,1.68657 0.88484,3.00349 1.33292,4.10413 0.44811,-1.10064 0.91118,-2.41756 1.33295,-4.10413 1.35977,-5.43912 2.28076,-13.42587 2.28076,-22.23554 0,-8.80964 -0.92099,-16.79641 -2.28076,-22.23551 -0.42177,-1.68657 -0.88484,-3.0035 -1.33295,-4.10413 z m -112.97416,1.53168 c -4.593,2.56057 -8.38994,6.35802 -10.95102,10.95103 l 7.28519,7.28415 10.94947,-10.94947 -7.28415,-7.28571 z m 27.71182,0 -7.28417,7.2852 10.94947,10.94948 7.28571,-7.28418 c -2.56055,-4.59298 -6.35802,-8.38993 -10.95101,-10.95102 z m -13.85591,13.85592 -10.95102,10.951 10.95102,10.95104 10.95101,-10.95104 z m -28.10778,6.9362 c -0.1843,1.31126 -0.28547,2.65038 -0.28547,4.0148 0,1.36443 0.10115,2.70306 0.28547,4.01481 l 4.0148,-4.01481 z m 56.21556,0 -4.01481,4.0148 4.01481,4.01481 c 0.18429,-1.31124 0.28547,-2.65038 0.28547,-4.01481 0,-1.36442 -0.10115,-2.70303 -0.28547,-4.0148 z m -45.62899,10.58656 -7.28572,7.28416 c 2.56055,4.59299 6.35802,8.38995 10.95102,10.95103 l 7.28417,-7.28521 -10.94947,-10.94947 z m 35.04242,0 -10.94947,10.94947 7.28417,7.28572 c 4.59299,-2.56057 8.38996,-6.35804 10.95101,-10.95103 l -7.28518,-7.28416 z m -17.52121,17.52121 -4.0148,4.01481 c 1.31124,0.1843 2.65038,0.28548 4.0148,0.28548 1.36443,0 2.70303,-0.10115 4.01481,-0.28548 z m -44.91296,46.63205 v 7.22738 h 7.22737 v -7.22738 z m 82.59855,0 v 7.22738 h 7.22736 v -7.22738 z M 104.39118,231.8686 v 15.48723 H 243.77625 V 231.8686 Z m -48.320157,24.77957 c 1.27667,2.5998 3.570319,5.165 7.389999,7.7839 6.065816,4.15986 15.33493,7.94339 26.639569,10.95824 22.610329,6.02968 53.318399,9.13488 83.983119,9.13488 30.66471,0 61.3728,-3.10571 83.98311,-9.13488 11.30465,-3.01485 20.57323,-6.79891 26.63959,-10.95824 3.82018,-2.6189 6.11331,-5.1841 7.38998,-7.7839 z"
     id="path1-9"
     style="stroke-width:0.51624" /></svg>
