<?xml version="1.0" encoding="UTF-8" standalone="no"?>
<svg
   height="45.5"
   viewBox="0 0 345.75 489.31"
   width="32.2"
   version="1.1"
   id="svg5"
   sodipodi:docname="wagon.svg"
   inkscape:version="1.3.2 (091e20e, 2023-11-25, custom)"
   xml:space="preserve"
   xmlns:inkscape="http://www.inkscape.org/namespaces/inkscape"
   xmlns:sodipodi="http://sodipodi.sourceforge.net/DTD/sodipodi-0.dtd"
   xmlns="http://www.w3.org/2000/svg"
   xmlns:svg="http://www.w3.org/2000/svg"><defs
     id="defs5" /><sodipodi:namedview
     id="namedview5"
     pagecolor="#ffffff"
     bordercolor="#000000"
     borderopacity="0.25"
     inkscape:showpageshadow="2"
     inkscape:pageopacity="0.0"
     inkscape:pagecheckerboard="0"
     inkscape:deskcolor="#d1d1d1"
     inkscape:zoom="4.467033"
     inkscape:cx="16.118081"
     inkscape:cy="52.943419"
     inkscape:window-width="1920"
     inkscape:window-height="1009"
     inkscape:window-x="-8"
     inkscape:window-y="-8"
     inkscape:window-maximized="1"
     inkscape:current-layer="svg5" /><path
     d="m338.25 172.94c0 19.96-3.55 39.09-10.04 56.8-20.63 56.33-127.49 215.19-150.83 249.59-2.2 3.24-6.95 3.33-9.26.16-27.06-37.13-160.62-224.53-160.62-306.61 0-92.46 75.87-167.2 168.75-165.35 89.71 1.79 162.04 75.67 162 165.41z"
     fill="#5db670"
     stroke="#000"
     stroke-miterlimit="10"
     stroke-width="15"
     id="path1"
     style="fill:#d6852c;fill-opacity:1" /><g
     style="fill:#000000"
     id="g1"
     transform="matrix(4.6056769,0,0,4.6056769,57.326563,45.562745)"><path
       d="M 14.875,-0.03125 C 14.832031,-0.0234375 14.789063,-0.0117188 14.75,0 14.660156,0.03125 14.578125,0.0703125 14.5,0.125 14.433594,0.160156 14.371094,0.203125 14.3125,0.25 13.949219,0.460938 2.625,6.984375 0.53125,8.125 0.0507813,8.386719 -0.128906,8.984375 0.125,9.46875 c 0,0 3.558594,6.578125 3.84375,14.53125 H 1 C 0.96875,24 0.9375,24 0.90625,24 0.875,24 0.84375,24 0.8125,24 0.335938,24.089844 -0.0078125,24.511719 0,25 v 5 c -0.0078125,0.265625 0.09375,0.527344 0.28125,0.71875 L 2.75,33.15625 C 1.0625,34.945313 0,37.339844 0,40 c 0,5.535156 4.464844,10 10,10 5.199219,0 9.441406,-3.933594 9.9375,-9 h 10.125 c 0.496094,5.066406 4.738281,9 9.9375,9 5.535156,0 10,-4.464844 10,-10 0,-2.597656 -1.007812,-4.941406 -2.625,-6.71875 l 2.375,-2.625 C 49.910156,30.476563 50,30.242188 50,30 v -5 c 0,-0.550781 -0.449219,-1 -1,-1 H 46.03125 C 46.316406,16.046875 49.875,9.46875 49.875,9.46875 50.128906,8.984375 49.949219,8.386719 49.46875,8.125 47.371094,6.980469 35.949219,0.390625 35.65625,0.21875 35.644531,0.207031 35.636719,0.199219 35.625,0.1875 35.621094,0.1875 35.5,0.125 35.5,0.125 35.382813,0.0585938 35.257813,0.015625 35.125,0 35.113281,0 35.105469,0 35.09375,0 35,-0.0117188 34.90625,-0.0117188 34.8125,0 34.714844,0.015625 34.621094,0.046875 34.53125,0.09375 31.996094,0.734375 29.625,1 25,1 20.316406,1 17.949219,0.71875 15.375,0.0625 15.304688,0.0351563 15.230469,0.0117188 15.15625,0 15.066406,-0.0234375 14.96875,-0.0351563 14.875,-0.03125 Z m 1.625,2.375 C 18.730469,2.785156 21.160156,3 25,3 c 3.839844,0 6.269531,-0.214844 8.5,-0.65625 -0.816406,2.609375 -2.1875,8.152344 -2.1875,16.46875 -0.0039,0.359375 0.183594,0.695313 0.496094,0.878906 0.3125,0.179688 0.695312,0.179688 1.007812,0 0.3125,-0.183593 0.5,-0.519531 0.496094,-0.878906 0,-8.730469 1.464844,-14.191406 2.1875,-16.34375 1.445313,0.832031 9.433594,5.398438 12.25,6.96875 C 47.144531,10.601563 44.269531,16.335938 44.03125,24 H 5.96875 C 5.730469,16.335938 2.855469,10.601563 2.25,9.4375 5.066406,7.867188 13.054688,3.300781 14.5,2.46875 c 0.722656,2.152344 2.1875,7.613281 2.1875,16.34375 -0.0039,0.359375 0.183594,0.695313 0.496094,0.878906 0.3125,0.179688 0.695312,0.179688 1.007812,0 0.3125,-0.183593 0.5,-0.519531 0.496094,-0.878906 0,-8.316406 -1.371094,-13.859375 -2.1875,-16.46875 z M 2,26 h 46 v 3.625 l -2.09375,2.3125 C 44.253906,30.726563 42.210938,30 40,30 c -5.199219,0 -9.441406,3.933594 -9.9375,9 H 19.9375 C 19.441406,33.933594 15.199219,30 10,30 7.851563,30 5.878906,30.699219 4.25,31.84375 L 2,29.5625 Z m 8,6 c 0.835938,0 1.652344,0.113281 2.40625,0.34375 l -2.1875,5.1875 C 10.144531,37.523438 10.078125,37.5 10,37.5 c -0.078125,0 -0.144531,0.02344 -0.21875,0.03125 l -2.125,-5.1875 C 8.394531,32.121094 9.179688,32 10,32 Z m 30,0 c 0.835938,0 1.652344,0.113281 2.40625,0.34375 l -2.1875,5.1875 C 40.144531,37.523438 40.078125,37.5 40,37.5 c -0.07813,0 -0.144531,0.02344 -0.21875,0.03125 l -2.125,-5.1875 C 38.398438,32.121094 39.175781,32 40,32 Z m -33.71875,0.90625 2.125,5.15625 c -0.121094,0.09766 -0.214844,0.222656 -0.3125,0.34375 L 2.9375,36.21875 c 0.75,-1.421875 1.921875,-2.574219 3.34375,-3.3125 z m 30,0 2.125,5.15625 c -0.113281,0.09375 -0.21875,0.203125 -0.3125,0.3125 L 32.9375,36.21875 c 0.753906,-1.425781 1.910156,-2.570312 3.34375,-3.3125 z m -22.5,0.03125 c 1.421875,0.75 2.574219,1.921875 3.3125,3.34375 l -5.15625,2.125 C 11.839844,38.285156 11.742188,38.160156 11.625,38.0625 Z m 30,0 c 1.421875,0.75 2.574219,1.921875 3.3125,3.34375 l -5.15625,2.125 C 41.84375,38.292969 41.734375,38.1875 41.625,38.09375 Z m -41.4375,4.65625 5.1875,2.1875 C 7.523438,39.855469 7.5,39.921875 7.5,40 c 0,0.07813 0.023438,0.144531 0.03125,0.21875 l -5.1875,2.125 C 2.121094,41.605469 2,40.820313 2,40 2,39.164063 2.113281,38.347656 2.34375,37.59375 Z m 30.03125,0 5.15625,2.1875 C 37.523438,39.855469 37.5,39.921875 37.5,40 c 0,0.07813 0.02344,0.144531 0.03125,0.21875 l -5.1875,2.125 C 32.136719,41.660156 32.015625,40.941406 32,40.1875 c 0.02734,-0.132812 0.02734,-0.273437 0,-0.40625 0.01953,-0.761719 0.160156,-1.496094 0.375,-2.1875 z m -14.71875,0.0625 C 17.878906,38.394531 18,39.179688 18,40 c 0,0.835938 -0.113281,1.652344 -0.34375,2.40625 l -5.1875,-2.1875 C 12.476563,40.144531 12.5,40.078125 12.5,40 c 0,-0.07813 -0.02344,-0.144531 -0.03125,-0.21875 z m 30,0 C 47.878906,38.394531 48,39.179688 48,40 c 0,0.835938 -0.113281,1.652344 -0.34375,2.40625 l -5.1875,-2.1875 C 42.476563,40.144531 42.5,40.078125 42.5,40 c 0,-0.07813 -0.02344,-0.144531 -0.03125,-0.21875 z M 8.0625,41.59375 c 0.097656,0.121094 0.195313,0.246094 0.3125,0.34375 l -2.15625,5.125 c -1.421875,-0.75 -2.574219,-1.921875 -3.3125,-3.34375 z m 3.84375,0 5.15625,2.1875 c -0.75,1.421875 -1.921875,2.574219 -3.34375,3.3125 l -2.125,-5.15625 c 0.121094,-0.09766 0.214844,-0.222656 0.3125,-0.34375 z m 26.15625,0 c 0.09375,0.113281 0.203125,0.21875 0.3125,0.3125 l -2.15625,5.15625 c -1.421875,-0.75 -2.570312,-1.917969 -3.3125,-3.34375 z m 3.84375,0.03125 5.15625,2.15625 c -0.753906,1.429688 -1.90625,2.570313 -3.34375,3.3125 l -2.125,-5.15625 c 0.113281,-0.09375 0.21875,-0.203125 0.3125,-0.3125 z m -32.125,0.84375 C 9.855469,42.476563 9.921875,42.5 10,42.5 c 0.07813,0 0.144531,-0.02344 0.21875,-0.03125 l 2.125,5.1875 C 11.605469,47.878906 10.820313,48 10,48 9.164063,48 8.347656,47.886719 7.59375,47.65625 Z m 30,0 C 39.855469,42.476563 39.921875,42.5 40,42.5 c 0.07813,0 0.144531,-0.02344 0.21875,-0.03125 l 2.125,5.21875 C 41.609375,47.90625 40.8125,48 40,48 39.164063,48 38.347656,47.886719 37.59375,47.65625 Z"
       id="path1-4" /></g></svg>
